<?xml version="1.0" encoding="utf-8"?>
<!-- Generator: Adobe Illustrator 23.0.4, SVG Export Plug-In . SVG Version: 6.00 Build 0)  -->
<svg version="1.1" id="Instagram" xmlns="http://www.w3.org/2000/svg" xmlns:xlink="http://www.w3.org/1999/xlink" x="0px" y="0px"
	 viewBox="0 0 18 18" style="enable-background:new 0 0 18 18;" xml:space="preserve">
<title>instagram</title>
<g>
	<circle cx="9" cy="8.1" r="1.5"/>
	<path d="M12.6,5.4c-0.1-0.2-0.2-0.4-0.3-0.5c-0.1-0.2-0.3-0.3-0.5-0.3c-0.3-0.1-0.6-0.2-0.9-0.2c-0.5,0-0.6,0-1.9,0s-1.4,0-1.9,0
		c-0.3,0-0.6,0.1-0.9,0.2C6.1,4.6,5.9,4.7,5.7,4.8C5.6,5,5.5,5.2,5.4,5.4C5.3,5.7,5.2,5.9,5.2,6.2c0,0.5,0,0.6,0,1.9s0,1.4,0,1.9
		c0,0.3,0.1,0.6,0.2,0.9c0.1,0.2,0.2,0.4,0.3,0.5c0.1,0.2,0.3,0.3,0.5,0.3c0.3,0.1,0.6,0.2,0.9,0.2c0.5,0,0.6,0,1.9,0s1.4,0,1.9,0
		c0.3,0,0.6-0.1,0.9-0.2c0.4-0.2,0.7-0.5,0.9-0.9c0.1-0.3,0.2-0.6,0.2-0.9c0-0.5,0-0.6,0-1.9s0-1.4,0-1.9
		C12.8,5.9,12.7,5.7,12.6,5.4z M9,10.5c-1.3,0-2.4-1.1-2.4-2.4S7.7,5.7,9,5.7s2.4,1.1,2.4,2.4S10.3,10.5,9,10.5z M11.5,6.2
		c-0.3,0-0.6-0.2-0.6-0.6c0-0.3,0.2-0.6,0.6-0.6S12,5.3,12,5.6S11.8,6.2,11.5,6.2z"/>
	<path d="M9-1.5c-5.3,0-9.6,4.3-9.6,9.6s4.3,9.6,9.6,9.6s9.6-4.3,9.6-9.6S14.3-1.5,9-1.5z M13.6,10c0,0.4-0.1,0.8-0.2,1.1
		c-0.2,0.6-0.7,1.1-1.4,1.4c-0.4,0.1-0.7,0.2-1.1,0.2c-0.5,0-0.7,0-1.9,0s-1.4,0-1.9,0c-0.4,0-0.8-0.1-1.1-0.2
		c-0.3-0.1-0.6-0.3-0.8-0.5c-0.2-0.2-0.4-0.5-0.5-0.8c-0.1-0.4-0.2-0.7-0.2-1.1c0-0.5,0-0.7,0-1.9s0-1.4,0-1.9
		c0-0.4,0.1-0.8,0.2-1.1c0.1-0.3,0.3-0.6,0.5-0.8C5.4,4,5.7,3.8,6,3.7c0.4-0.1,0.7-0.2,1.1-0.2c0.5,0,0.7,0,1.9,0s1.4,0,1.9,0
		c0.4,0,0.8,0.1,1.1,0.2c0.3,0.1,0.6,0.3,0.8,0.5c0.2,0.2,0.4,0.5,0.5,0.8c0.1,0.4,0.2,0.7,0.2,1.1c0,0.5,0,0.7,0,1.9
		S13.6,9.5,13.6,10z"/>
</g>
</svg>
