<?xml version="1.0" encoding="utf-8"?>
<!-- Generator: Adobe Illustrator 23.0.4, SVG Export Plug-In . SVG Version: 6.00 Build 0)  -->
<svg version="1.1" id="Instagram" xmlns="http://www.w3.org/2000/svg" xmlns:xlink="http://www.w3.org/1999/xlink" x="0px" y="0px"
	 viewBox="0 0 19.1999512 19.1999512" style="enable-background:new 0 0 19.1999512 19.1999512;" xml:space="preserve">
<title>instagram</title>
<g>
	<circle cx="9.5999756" cy="9.5999756" r="1.7232056"/>
	<path d="M13.6207275,6.5557251c-0.1148682-0.2297974-0.2297363-0.4020996-0.4020996-0.5744019
		c-0.1723022-0.1723633-0.3446045-0.3446655-0.5744019-0.4020996c-0.3446045-0.1148682-0.6317749-0.1723022-0.9764404-0.1723022
		c-0.5169678-0.0574341-0.68927-0.0574341-2.0678101-0.0574341S8.0491333,5.4069214,7.5321655,5.4069214
		c-0.3446655,0-0.68927,0.0574341-0.9764404,0.1723022C6.3259277,5.6940918,6.1536255,5.80896,5.9813232,5.9813232
		C5.80896,6.1536255,5.6366577,6.3259277,5.5792236,6.5557251C5.4643555,6.9003296,5.4069214,7.1875,5.4069214,7.5321655
		c-0.0574341,0.5169678-0.0574341,0.68927-0.0574341,2.0678101s0.0574341,1.5508423,0.0574341,2.0678101
		c0,0.3446655,0.0574341,0.68927,0.1723022,0.9764404c0.1148682,0.2297974,0.2297363,0.4020996,0.4020996,0.5744019
		c0.1723022,0.1723633,0.3446045,0.3446655,0.5744019,0.4020996c0.3446045,0.1148682,0.6317749,0.1723022,0.9764404,0.1723022
		c0.5169678,0.0574341,0.68927,0.0574341,2.0678101,0.0574341s1.5508423-0.0574341,2.0678101-0.0574341
		c0.3446655,0,0.68927-0.0574341,0.9764404-0.1723022c0.4595337-0.1723022,0.8041992-0.5169678,0.9765015-0.9765015
		c0.1148682-0.3446045,0.1723022-0.6317749,0.1723022-0.9764404c0.0574341-0.5169678,0.0574341-0.68927,0.0574341-2.0678101
		s-0.0574341-1.5508423-0.0574341-2.0678101C13.7930298,7.1875,13.7355957,6.8428955,13.6207275,6.5557251z M9.5999756,12.2421875
		c-1.4359741,0-2.6422119-1.1488037-2.6422119-2.6422119s1.1488037-2.6422119,2.6422119-2.6422119
		s2.6422119,1.1488037,2.6422119,2.6422119C12.2421875,11.0359497,11.0359497,12.2421875,9.5999756,12.2421875z
		 M12.3570557,7.4747314c-0.3446045,0-0.6318359-0.2872314-0.6318359-0.6318359
		c0-0.3446655,0.2872314-0.6318359,0.6318359-0.6318359c0.3446655,0,0.6318359,0.2871704,0.6318359,0.6318359
		C12.9888916,7.1875,12.7017212,7.4747314,12.3570557,7.4747314z"/>
	<path d="M9.5999756,0C4.2980347,0,0,4.2980347,0,9.5999756s4.2980347,9.5999756,9.5999756,9.5999756
		s9.5999756-4.2980347,9.5999756-9.5999756S14.9019165,0,9.5999756,0z M14.7120972,11.7252197
		c0,0.4595337-0.0574951,0.8615723-0.2297974,1.2636719c-0.2297363,0.68927-0.8041382,1.2062378-1.4934082,1.4934082
		c-0.4020996,0.1148682-0.8615723,0.2297974-1.2636719,0.2297974c-0.5169678,0.0574341-0.7467041,0.0574341-2.1252441,0.0574341
		s-1.6082764,0-2.1252441-0.0574341c-0.4595337,0-0.8615723-0.0574951-1.2636719-0.2297974
		c-0.3446045-0.1148682-0.68927-0.2871704-0.9190063-0.5744019c-0.2297974-0.2871704-0.4595337-0.5744019-0.5744019-0.9190063
		C4.6027832,12.586792,4.487854,12.1273193,4.487854,11.7252197c-0.0574341-0.5169678-0.0574341-0.7467041-0.0574341-2.1252441
		s0-1.6082764,0.0574341-2.1252441c0-0.4595337,0.0574951-0.8615723,0.2297974-1.2636719
		c0.1148682-0.3446045,0.2871704-0.68927,0.5744019-0.9190063c0.2871704-0.2297974,0.5744019-0.4595337,0.9190063-0.5744019
		C6.6131592,4.6027832,7.0726318,4.487854,7.4747314,4.487854c0.5169678-0.0574341,0.7467041-0.0574341,2.1252441-0.0574341
		s1.6082764,0,2.1252441,0.0574341c0.4595337,0,0.8615723,0.0574951,1.2636719,0.2297974
		c0.3446045,0.1148682,0.68927,0.2871704,0.9190063,0.5744019c0.2297974,0.2871704,0.4595337,0.5744019,0.5744019,0.9190063
		c0.1148682,0.4020996,0.2297974,0.8615723,0.2297974,1.2636719c0.0574341,0.5169678,0.0574341,0.7467041,0.0574341,2.1252441
		S14.7120972,11.1508179,14.7120972,11.7252197z"/>
</g>
</svg>
