
<svg width="184px" height="53px" viewBox="0 0 184 53" version="1.1" xmlns="http://www.w3.org/2000/svg" xmlns:xlink="http://www.w3.org/1999/xlink">
    <defs>
        <polygon id="path-1" points="0 0.229666667 52.7707081 0.229666667 52.7707081 52.9997859 0 52.9997859"></polygon>
        <polygon id="path-3" points="0 53 184 53 184 0 0 0"></polygon>
    </defs>
    <g id="Page-1" stroke="none" stroke-width="1" fill="none" fill-rule="evenodd">
        <g id="ABOUT-DROP-DOWN" transform="translate(-663.000000, -1018.000000)">
            <g id="Group-21-Copy" transform="translate(663.000000, 1018.000000)">
                <g id="Group-3">
                    <mask id="mask-2" fill="white">
                        <use xlink:href="#path-1"></use>
                    </mask>
                    <g id="Clip-2"></g>
                    <path d="M41.6203646,36.8808263 C40.367102,36.3727758 40.1283343,35.5333414 40.1283343,32.9968364 C40.1283343,32.5198364 39.5287384,30.4373111 39.5287384,30.4373111 C39.5287384,30.4373111 43.2713949,33.1692202 43.7253747,34.6339475 C44.1568697,36.1297253 43.1188192,37.4734626 41.6203646,36.8808263 M25.8408192,40.5565636 C17.3399404,40.4837556 14.5379,34.4251596 14.0678596,33.2709374 C15.077001,30.7215838 17.2360818,23.3909879 18.2928697,19.7591495 C19.2811323,21.2736646 21.3090515,23.4418465 25.5924152,26.1427051 C30.2671222,29.0710889 33.5011929,30.0614929 35.4199,30.3671798 C33.2110313,32.3747556 28.9458697,36.4482606 25.8408192,40.5565636 M39.1523848,3.52294747 C38.139496,7.93051313 36.3262535,12.5581091 33.3116778,17.131099 C34.6634455,18.1434525 35.5216172,19.4277657 35.8685263,20.9685131 C36.6758394,24.470796 34.4605465,27.9452404 34.3700717,28.0801495 C34.2726374,28.2348667 34.1366576,28.3462202 33.9851525,28.4184929 C33.6050515,28.3071394 33.1906879,28.1716949 32.7415263,28.0068061 C32.5868091,27.7139677 32.5878798,27.3488566 32.7699,27.0517354 C32.8014859,27.0260384 34.6500616,24.0981899 34.0188798,21.3689576 C33.7164051,20.0841091 32.8801828,19.0080485 31.523597,18.1969879 C26.5025162,15.1781293 22.6918697,20.6708566 22.5366172,20.9053414 C22.3503141,21.1746242 22.047304,21.3191697 21.7400111,21.3191697 C21.3866778,20.9952808 21.0772434,20.6901293 20.8068899,20.4031798 C20.8020717,20.2083111 20.8534657,20.0107657 20.9685667,19.8378465 C22.5719505,17.4689071 26.7814354,13.8145838 31.684203,16.149796 C34.6880717,11.6014323 36.443496,6.99846263 37.3889303,2.63426061 C34.0386879,1.09458384 30.3142333,0.229452525 26.3852737,0.229452525 C11.8129505,0.229452525 -0.000160606061,12.0425636 -0.000160606061,26.6148869 C-0.000160606061,41.1872101 11.8129505,52.9997859 26.3852737,52.9997859 C40.957597,52.9997859 52.7707081,41.1872101 52.7707081,26.6148869 C52.7707081,16.6744424 47.2715566,8.02205859 39.1523848,3.52294747" id="Fill-1" fill="#000000" mask="url(#mask-2)"></path>
                </g>
                <polygon id="Fill-4" fill="#000000" points="74.0002684 25.1824227 72.8740371 28.5865012 70.032155 37 67.5123601 37 64 22 66.6008535 22 68.2365193 29.8039455 68.9064605 33.3465588 70.0589956 29.8039455 72.6866897 22 75.3138471 22 77.9415412 29.8039455 79.0940763 33.3465588 79.7640175 29.8039455 81.3996833 22 84 22 80.4881767 37 77.9683818 37 75.1264997 28.5865012"></polygon>
                <path d="M90.3083469,34.725712 C92.9356776,34.7799263 94.9393901,32.8845959 95.2376423,31.2869018 L95.2376423,29.6089707 L90.8229675,30.3121295 C88.9542819,30.6097658 87.7086723,31.070587 87.7086723,32.6677389 C87.7086723,34.0762252 88.6023443,34.725712 90.3083469,34.725712 M88.2769783,26.6841116 L85.5965044,26.305154 C86.0026697,23.814009 87.4375339,22 91.5816126,22 C95.4811246,22 97.8102031,23.7055805 97.8102031,27.2528191 L97.8102031,33.1009108 L98,36.6752566 L95.6438076,36.6752566 L95.3184416,34.6172835 C94.3168565,36.1602212 92.258374,37 90.1456639,37 C86.5709757,37 85,35.3215267 85,32.7490603 C85,29.7439641 87.247737,28.7691918 90.578943,28.2818057 L95.2376423,27.6046697 L95.2376423,27.0630692 C95.2376423,25.0593104 93.9643766,24.3013951 91.635298,24.2471809 C89.3604472,24.2206159 88.5752305,25.1140668 88.2769783,26.6841116" id="Fill-6" fill="#000000"></path>
                <path d="M100,22.288587 L102.659604,22.288587 L102.659604,18.4342391 L105.29092,18 L105.29092,22.288587 L109.77869,22.288587 L109.77869,24.4869565 L105.29092,24.4869565 L105.29092,31.2728261 C105.29092,33.9869565 106.177825,34.5842391 108.060902,34.6108696 C108.809141,34.6380435 109.445893,34.3940217 109.750957,34.2581522 L110,36.673913 C109.556825,36.8369565 108.781408,37 108.00599,37 C103.518221,37 102.659604,34.2858696 102.659604,31.4358696 L102.659604,24.4869565 L100,24.4869565 L100,22.288587 Z" id="Fill-8" fill="#000000"></path>
                <path d="M113.67947,28.3625849 L121.267408,28.3625849 C121.214286,25.7087972 120.046666,24.2200737 117.712488,24.2471809 C115.430901,24.2471809 113.865397,25.5195894 113.67947,28.3625849 L113.67947,28.3625849 Z M113.652909,30.5555515 C113.838836,33.4793263 115.40434,34.7251699 117.739049,34.7251699 C120.020636,34.7793841 120.949207,33.8588261 121.240315,32.4508819 L123.894287,32.7761674 C123.575556,35.0504554 121.824657,37 117.765078,37 C113.573758,37 111,34.4817479 111,29.5 C111,24.51771 113.573758,22 117.685927,22 C121.95693,22 124,24.7074599 124,29.4728929 L124,30.5555515 L113.652909,30.5555515 Z" id="Fill-10" fill="#000000"></path>
                <path d="M129.732018,28.0059849 L129.732018,37 L127.187712,37 L127.187712,25.95781 L127,22.3319418 L129.330314,22.3319418 L129.678386,24.5740727 C130.481795,23.0795035 132.169597,22 134.098206,22 C134.821167,22 135.544664,22.110832 136,22.3042338 L135.758656,24.8783065 C135.517848,24.7397665 134.928431,24.5458106 134.178654,24.5458106 C131.741076,24.5458106 130.000179,26.3451677 129.732018,28.0059849" id="Fill-12" fill="#000000"></path>
                <polygon id="Fill-14" fill="#000000" points="146.999732 25.1824227 145.8735 28.5865012 143.031618 37 140.511823 37 137 22 139.600317 22 141.235982 29.8039455 141.905924 33.3465588 143.058459 29.8039455 145.686153 22 148.31331 22 150.941004 29.8039455 152.093539 33.3465588 152.763481 29.8039455 154.399146 22 157 22 153.48764 37 150.967845 37 148.125963 28.5865012"></polygon>
                <path d="M161.67947,28.3625849 L169.267408,28.3625849 C169.214286,25.7087972 168.046666,24.2200737 165.712488,24.2471809 C163.430901,24.2471809 161.865397,25.5195894 161.67947,28.3625849 L161.67947,28.3625849 Z M161.652909,30.5555515 C161.838836,33.4793263 163.40434,34.7251699 165.739049,34.7251699 C168.020636,34.7793841 168.949207,33.8588261 169.240315,32.4508819 L171.894287,32.7761674 C171.575556,35.0504554 169.824657,37 165.765078,37 C161.573758,37 159,34.4817479 159,29.5 C159,24.51771 161.573758,22 165.685927,22 C169.95693,22 172,24.7074599 172,29.4728929 L172,30.5555515 L161.652909,30.5555515 Z" id="Fill-16" fill="#000000"></path>
                <mask id="mask-4" fill="white">
                    <use xlink:href="#path-3"></use>
                </mask>
                <g id="Clip-19"></g>
                <polygon id="Fill-18" fill="#000000" mask="url(#mask-4)" points="175 37 178 37 178 15 175 15"></polygon>
                <polygon id="Fill-20" fill="#000000" mask="url(#mask-4)" points="181 37 184 37 184 15 181 15"></polygon>
            </g>
        </g>
    </g>
</svg>
